<svg width="52" height="51" viewBox="0 0 52 51" fill="none" xmlns="http://www.w3.org/2000/svg">
<g clip-path="url(#clip0_5_1357)">
<mask id="mask0_5_1357" style="mask-type:luminance" maskUnits="userSpaceOnUse" x="-9" y="-4" width="216" height="57">
<path d="M206.104 -3.40552H-8.58142V52.7343H206.104V-3.40552Z" fill="white"/>
</mask>
<g mask="url(#mask0_5_1357)">
<path d="M21.9358 33.7611C20.2921 35.4369 20.2931 38.1557 21.9369 39.832C23.5802 41.5083 23.5817 44.2271 21.9374 45.9029C20.2926 47.5791 17.6258 47.5791 15.9811 45.9023L4.07084 33.7611C2.42648 32.0848 2.42716 29.3676 4.07236 27.6919C5.71641 26.0177 8.38135 26.0188 10.0254 27.6929C11.6703 29.3681 14.3375 29.3676 15.9824 27.6929C17.6263 26.0188 20.291 26.0177 21.9353 27.6919C23.5802 29.3671 23.5807 32.0854 21.9358 33.7611Z" fill="#D9CBF6"/>
</g>
<mask id="mask1_5_1357" style="mask-type:luminance" maskUnits="userSpaceOnUse" x="-9" y="-4" width="216" height="57">
<path d="M206.497 -3.40552H-8.18921V52.7343H206.497V-3.40552Z" fill="white"/>
</mask>
<g mask="url(#mask1_5_1357)">
<path d="M46.1534 27.6914C47.7993 29.3671 47.7998 32.0854 46.155 33.7617L34.2452 45.9024C32.6009 47.5792 29.9336 47.5792 28.2888 45.9029C26.6445 44.2272 26.646 41.5083 28.2898 39.832C29.9331 38.1558 29.9341 35.4364 28.2904 33.7612C26.646 32.0854 26.646 29.3677 28.2909 27.6924C29.9347 26.0183 32.5994 26.0193 34.2431 27.694C35.8864 29.3687 38.5537 29.3671 40.198 27.6935C41.8429 26.0199 44.5096 26.0172 46.1534 27.6914Z" fill="#8353E2"/>
</g>
<mask id="mask2_5_1357" style="mask-type:luminance" maskUnits="userSpaceOnUse" x="-9" y="-4" width="216" height="57">
<path d="M206.497 -3.27759H-8.18921V52.8622H206.497V-3.27759Z" fill="white"/>
</mask>
<g mask="url(#mask2_5_1357)">
<path d="M46.1549 15.6902C47.7998 17.3665 47.7998 20.0843 46.1549 21.7606C44.5106 23.4363 41.8423 23.4347 40.1974 21.7595C38.5531 20.0848 35.8864 20.0838 34.2431 21.7595C32.5998 23.4353 29.9336 23.4353 28.2898 21.76C26.6455 20.0843 26.6449 17.3665 28.2893 15.6913C29.9341 14.015 29.9341 11.2978 28.2898 9.6215C26.6449 7.94575 26.6449 5.22851 28.2898 3.55222C29.9341 1.87647 32.6003 1.87647 34.2452 3.55222L46.1549 15.6902Z" fill="#D9CBF6"/>
</g>
<mask id="mask3_5_1357" style="mask-type:luminance" maskUnits="userSpaceOnUse" x="-9" y="-4" width="216" height="57">
<path d="M206.104 -3.27759H-8.58142V52.8622H206.104V-3.27759Z" fill="white"/>
</mask>
<g mask="url(#mask3_5_1357)">
<path d="M21.937 9.6215C20.2926 11.2978 20.2926 14.015 21.937 15.6908C23.5813 17.3665 23.5813 20.0838 21.937 21.76C20.2926 23.4358 17.6259 23.4358 15.9816 21.76C14.337 20.0838 11.6708 20.0838 10.0263 21.76C8.38174 23.4358 5.71544 23.4358 4.07092 21.76C2.42639 20.0838 2.42639 17.3665 4.07092 15.6908L15.9816 3.55222C17.6259 1.87647 20.2926 1.87647 21.937 3.55222C23.5813 5.22851 23.5813 7.94575 21.937 9.6215Z" fill="#8353E2"/>
</g>
</g>
<defs>
<clipPath id="clip0_5_1357">
<rect width="52" height="51" fill="white"/>
</clipPath>
</defs>
</svg>
