<svg width="24" height="24" viewBox="0 0 24 24" fill="none" xmlns="http://www.w3.org/2000/svg">
<path d="M6.85027 17.7747L8.74284 19.2001C9.17484 19.5241 9.42855 20.0315 9.42855 20.5715V21.4287H2.57141V20.5715C2.57141 20.0315 2.82513 19.5241 3.25713 19.2001L5.1497 17.7747" stroke="#00BDD6" stroke-width="2.05714" stroke-miterlimit="10"/>
<path d="M6.00005 18.0001C5.05291 18.0001 4.28577 17.2329 4.28577 16.2858L4.28577 15.4286C4.28577 14.4815 5.05291 13.7144 6.00005 13.7144C6.9472 13.7144 7.71434 14.4815 7.71434 15.4286V16.2858C7.71434 17.2329 6.9472 18.0001 6.00005 18.0001Z" stroke="#00BDD6" stroke-width="2.05714" stroke-miterlimit="10" stroke-linecap="square"/>
<path d="M12.8503 6.63184L14.7428 8.05726C15.1748 8.38126 15.4286 8.88869 15.4286 9.42869V10.2858L8.57141 10.2858L8.57141 9.42869C8.57141 8.88869 8.82513 8.38126 9.25713 8.05726L11.1497 6.63184" stroke="#00BDD6" stroke-width="2.05714" stroke-miterlimit="10"/>
<path d="M12.0001 6.85725C11.0529 6.85725 10.2858 6.0901 10.2858 5.14296V4.28582C10.2858 3.33868 11.0529 2.57153 12.0001 2.57153C12.9472 2.57153 13.7143 3.33868 13.7143 4.28582V5.14296C13.7143 6.0901 12.9472 6.85725 12.0001 6.85725Z" stroke="#00BDD6" stroke-width="2.05714" stroke-miterlimit="10" stroke-linecap="square"/>
<path d="M18.8503 17.7747L20.7428 19.2001C21.1748 19.5241 21.4286 20.0315 21.4286 20.5715V21.4287H14.5714L14.5714 20.5715C14.5714 20.0315 14.8251 19.5241 15.2571 19.2001L17.1497 17.7747" stroke="#00BDD6" stroke-width="2.05714" stroke-miterlimit="10"/>
<path d="M18.0001 18.0001C17.0529 18.0001 16.2858 17.2329 16.2858 16.2858V15.4286C16.2858 14.4815 17.0529 13.7144 18.0001 13.7144C18.9472 13.7144 19.7143 14.4815 19.7143 15.4286V16.2858C19.7143 17.2329 18.9472 18.0001 18.0001 18.0001Z" stroke="#00BDD6" stroke-width="2.05714" stroke-miterlimit="10" stroke-linecap="square"/>
</svg>
