<svg width="335" height="397" viewBox="0 0 335 397" fill="none" xmlns="http://www.w3.org/2000/svg">
<path d="M265.356 22.6069H68.1731V286.213H265.356V22.6069Z" fill="white" stroke="black" stroke-width="0.946995" stroke-miterlimit="10"/>
<path d="M68.1636 40.5599H265.365" stroke="black" stroke-width="0.946995" stroke-miterlimit="10"/>
<path d="M78.2055 34.4999C79.6653 34.4999 80.8487 33.309 80.8487 31.8399C80.8487 30.3709 79.6653 29.1799 78.2055 29.1799C76.7457 29.1799 75.5623 30.3709 75.5623 31.8399C75.5623 33.309 76.7457 34.4999 78.2055 34.4999Z" fill="black"/>
<path d="M87.5275 34.4999C88.9873 34.4999 90.1707 33.309 90.1707 31.8399C90.1707 30.3709 88.9873 29.1799 87.5275 29.1799C86.0677 29.1799 84.8843 30.3709 84.8843 31.8399C84.8843 33.309 86.0677 34.4999 87.5275 34.4999Z" fill="black"/>
<path d="M96.8493 34.4999C98.3091 34.4999 99.4925 33.309 99.4925 31.8399C99.4925 30.3709 98.3091 29.1799 96.8493 29.1799C95.3895 29.1799 94.2061 30.3709 94.2061 31.8399C94.2061 33.309 95.3895 34.4999 96.8493 34.4999Z" fill="black"/>
<path d="M236.616 130.983H190.039V177.856H236.616V130.983Z" fill="#FFC60A" stroke="black" stroke-width="0.946995" stroke-miterlimit="10"/>
<path d="M236.606 130.983L190.048 177.837" stroke="black" stroke-width="0.946995" stroke-miterlimit="10"/>
<path d="M190.048 130.983L236.606 177.837" stroke="black" stroke-width="0.946995" stroke-miterlimit="10"/>
<path d="M132.021 179.143H85.4436V226.016H132.021V179.143Z" stroke="black" stroke-width="0.946995" stroke-miterlimit="10"/>
<path d="M131.999 179.143L85.4412 226.016" stroke="black" stroke-width="0.946995" stroke-miterlimit="10"/>
<path d="M85.4412 179.143L131.999 226.016" stroke="black" stroke-width="0.946995" stroke-miterlimit="10"/>
<path d="M217.717 78.7944H93.4864C91.6361 78.7944 90.1257 77.2744 90.1257 75.4124V69.0474C90.1257 67.1854 91.6361 65.6654 93.4864 65.6654H217.717C219.567 65.6654 221.077 67.1854 221.077 69.0474V75.4124C221.077 77.2934 219.567 78.7944 217.717 78.7944Z" fill="#F38598"/>
<path d="M120.641 138.34H170.408" stroke="black" stroke-width="0.946995" stroke-miterlimit="10"/>
<path d="M120.641 148.73H170.408" stroke="black" stroke-width="0.946995" stroke-miterlimit="10"/>
<path d="M120.641 159.11H170.408" stroke="black" stroke-width="0.946995" stroke-miterlimit="10"/>
<path d="M120.641 169.5H170.408" stroke="black" stroke-width="0.946995" stroke-miterlimit="10"/>
<path d="M235.436 88.9674H151.76V116.232H235.436V88.9674Z" stroke="black" stroke-width="0.946995" stroke-miterlimit="10"/>
<path d="M244.552 194.088H139.976V226.331H244.552V194.088Z" fill="#00AB93"/>
<path d="M322.515 330.359L329.783 336.686L299.387 358.46C299.387 358.46 292.269 356.883 295.006 352.076C297.744 347.269 307.392 337.997 307.392 337.997L322.515 330.359Z" fill="black"/>
<path d="M309.875 337.771C308.836 337.771 308.043 337.676 307.685 337.638L304.551 332.603L318.201 324.129L321.996 330.494C319.56 336.821 313.367 337.771 309.875 337.771Z" fill="white"/>
<path d="M318.04 324.8L321.458 330.557C319.079 336.428 313.207 337.321 309.865 337.321C309.035 337.321 308.355 337.264 307.959 337.226L305.221 332.78L318.04 324.8ZM318.361 323.489L303.918 332.476L307.411 338.1C307.411 338.1 308.393 338.271 309.884 338.271C313.49 338.271 320.061 337.283 322.534 330.462L318.361 323.489Z" fill="black"/>
<path d="M262.97 207.23L278.036 275.554L303.146 336.829L323.291 327.614L310.17 273.863L307.451 219.675L262.97 207.23Z" fill="#659ED4"/>
<path d="M261.93 343.292L262.59 352.944L225.831 346.56C225.831 346.56 221.942 340.366 227.247 338.941C232.552 337.516 245.9 337.877 245.9 337.877L261.93 343.292Z" fill="black"/>
<path d="M257.19 343.976C251.375 343.976 247.165 338.827 246.41 337.839L247.769 332.063L263.364 335.844L261.551 343.045C260.098 343.653 258.644 343.976 257.19 343.976Z" fill="white"/>
<path d="M248.104 332.63L262.774 336.183L261.131 342.681C259.829 343.232 258.507 343.498 257.186 343.498C251.88 343.498 247.915 338.976 246.915 337.722L248.104 332.63ZM247.406 331.471L245.895 337.931C245.895 337.931 250.464 344.448 257.186 344.448C258.677 344.448 260.263 344.125 261.924 343.365L263.926 335.48L247.406 331.471Z" fill="black"/>
<path d="M303.04 225.324L305.117 216.66L262.977 207.217L242.417 333.491L270.453 340.502L291.769 263.172C302.984 242.405 303.04 225.324 303.04 225.324Z" fill="#659ED4" stroke="#231F20" stroke-width="0.946995" stroke-miterlimit="10" stroke-linecap="round"/>
<path d="M216.052 147.773L222.886 143.897C224.548 142.966 226.605 143.156 228.059 144.372L255.945 167.818L244.353 177.128L231.08 161.833C229.343 162.023 226.681 158.299 226.681 158.299L225.964 158.964C224.51 159.572 223.188 157.938 222.206 156.399C221.225 154.86 222.282 153.758 222.282 153.758C220.394 152.599 221.904 150.851 221.904 150.851C220.828 150.357 221.074 149.312 221.074 149.312L218.242 150.604C217.486 150.946 216.618 151.022 215.825 150.737C215.523 150.623 215.259 150.49 215.089 150.281C214.9 150.034 214.862 149.73 214.9 149.407C214.994 148.723 215.429 148.115 216.052 147.773Z" fill="white" stroke="black" stroke-width="0.946995" stroke-miterlimit="10" stroke-linecap="round"/>
<path d="M221.056 149.413L223.133 148.026" stroke="black" stroke-width="0.946995" stroke-miterlimit="10"/>
<path d="M221.887 150.943L224.568 149.537" stroke="black" stroke-width="0.946995" stroke-miterlimit="10"/>
<path d="M222.262 153.849C222.262 153.849 224.301 152.595 225.113 152.842" stroke="black" stroke-width="0.946995" stroke-miterlimit="10" stroke-linecap="round"/>
<path d="M291.176 110.913C298.671 115.245 290.44 130.521 290.44 130.521L292.441 143.042L278.772 141.085V134.682C278.772 134.682 277.62 134.606 272.428 134.549C267.217 134.492 270.899 124.821 270.899 124.821C270.899 124.821 269.54 123.567 269.445 122.085C269.37 120.622 272.334 120.755 272.825 115.872C272.995 114.238 273.542 112.908 274.203 111.882C275.411 109.982 277.545 108.88 279.773 108.918C283.001 108.975 288.457 109.336 291.176 110.913Z" fill="white" stroke="black" stroke-width="0.946995" stroke-miterlimit="10" stroke-linecap="round"/>
<path d="M291.176 110.968C288.438 109.391 282.982 109.03 279.773 108.973C279.414 108.973 279.055 108.992 278.715 109.03C278.715 109.03 277.261 106.56 276.374 106.503C275.487 106.446 275.713 107.985 275.713 107.985C275.713 107.985 274.392 106.807 272.995 107.187C271.597 107.567 274.807 111.12 274.807 111.12L278.772 113.02L280.433 117.732L283.303 118.15L284.36 120.715C284.36 120.715 287.192 118.397 288.552 120.43C289.911 122.463 286.418 124.591 285.116 124.99L290.459 130.557C290.459 130.576 298.69 115.3 291.176 110.968Z" fill="black"/>
<path d="M274.899 118.5C274.939 118.185 274.801 117.903 274.593 117.87C274.384 117.837 274.183 118.065 274.144 118.38C274.105 118.695 274.243 118.977 274.451 119.01C274.66 119.043 274.86 118.815 274.899 118.5Z" fill="black"/>
<path d="M274.487 116.116C274.487 116.116 275.582 116.23 276.186 116.743" stroke="black" stroke-width="1.51519" stroke-miterlimit="10" stroke-linecap="round"/>
<path d="M270.187 127.093C270.187 127.093 272.585 128.879 274.68 127.34" stroke="black" stroke-width="0.946995" stroke-miterlimit="10" stroke-linecap="round"/>
<path d="M257.95 165.66L249.813 162.126L237.446 172.956L256.591 189.562L252.682 221.786L315.043 224.066L301.393 153.101C300.619 146.128 295.257 140.561 288.366 139.573L277.547 138.034L275.395 141.264C273.885 141.055 272.393 141.758 271.6 143.069L257.95 165.66Z" fill="#EE3535"/>
<path d="M281.857 174.921L268.301 192.762C267.13 194.32 264.959 194.719 263.317 193.693L256.614 189.532" stroke="black" stroke-width="0.946995" stroke-miterlimit="10" stroke-linecap="round"/>
<path d="M225.835 156.537L226.685 158.342" stroke="black" stroke-width="0.568197" stroke-miterlimit="10"/>
<path d="M68.207 87.0153C68.207 87.0153 46.5705 84.7163 28.3324 104.818C10.0943 124.92 68.207 159.804 68.207 159.804V87.0153Z" fill="#FFC60A"/>
<path d="M35.8443 76.8086L33.6542 70.3296C33.6542 70.3296 30.4258 63.7366 37.9966 60.4116C45.5864 57.0866 49.5134 62.1406 49.5134 62.1406L57.4997 78.4236C58.6514 80.6276 58.085 83.3446 56.1592 84.8646L54.309 86.3276L56.6878 93.3956V93.4146C57.9906 97.2906 55.9515 101.49 52.1378 102.801C48.324 104.093 44.1704 102.003 42.8677 98.1266V98.1076H42.8488L38.091 83.9526C38.091 83.9526 34.7115 84.6936 33.1445 80.8746C31.5963 77.0556 35.8443 76.8086 35.8443 76.8086Z" fill="white" stroke="black" stroke-width="0.946995" stroke-miterlimit="10" stroke-linecap="round"/>
<path d="M48.4949 69.002C48.4949 69.002 51.8178 72.65 51.1381 73.619C50.4584 74.588 49.8542 75.158 49.8542 75.158" stroke="black" stroke-width="0.946995" stroke-miterlimit="10" stroke-linecap="round"/>
<path d="M45.4721 72.0139C45.8435 71.888 46.0443 71.4797 45.9205 71.1019C45.7967 70.7241 45.3951 70.52 45.0237 70.6459C44.6522 70.7718 44.4515 71.1801 44.5753 71.5579C44.6991 71.9357 45.1006 72.1398 45.4721 72.0139Z" fill="black"/>
<path d="M51.2777 68.844C51.6492 68.7181 51.85 68.3097 51.7261 67.932C51.6023 67.5542 51.2008 67.3501 50.8293 67.476C50.4579 67.6019 50.2571 68.0102 50.3809 68.388C50.5048 68.7657 50.9063 68.9699 51.2777 68.844Z" fill="black"/>
<path d="M43.6408 66.6034L40.6011 69.0164" stroke="black" stroke-width="1.51519" stroke-miterlimit="10" stroke-linecap="round"/>
<path d="M50.6618 64.2759L49.0381 64.5039" stroke="black" stroke-width="1.51519" stroke-miterlimit="10" stroke-linecap="round"/>
<path d="M52.132 77.8749C52.132 77.8749 49.3378 79.6419 47.5442 78.1409" stroke="black" stroke-width="0.946995" stroke-miterlimit="10" stroke-linecap="round"/>
<path d="M54.662 85.9395L50.7727 88.5805" stroke="black" stroke-width="0.568197" stroke-miterlimit="10" stroke-linecap="round"/>
<path d="M44.8113 74.712C46.6674 74.712 48.172 73.1978 48.172 71.33C48.172 69.4622 46.6674 67.948 44.8113 67.948C42.9553 67.948 41.4507 69.4622 41.4507 71.33C41.4507 73.1978 42.9553 74.712 44.8113 74.712Z" stroke="#FBA92D" stroke-width="0.568197" stroke-miterlimit="10"/>
<path d="M52.7173 71.1319C54.5734 71.1319 56.078 69.6177 56.078 67.7499C56.078 65.8821 54.5734 64.3679 52.7173 64.3679C50.8613 64.3679 49.3567 65.8821 49.3567 67.7499C49.3567 69.6177 50.8613 71.1319 52.7173 71.1319Z" stroke="#FBA92D" stroke-width="0.568197" stroke-miterlimit="10"/>
<path d="M38.9784 64.766C38.9784 64.766 42.4523 71.055 35.8443 76.907C35.8443 76.907 27.7259 67.901 34.1073 61.099C40.4888 54.297 48.1918 59.693 49.5134 62.22C49.5323 62.22 45.9828 64.747 38.9784 64.766Z" fill="black"/>
<path d="M34.1159 61.1489C34.1159 61.1489 30.7741 54.3469 26.5072 56.4939C22.2403 58.6409 20.1258 59.3249 15.8589 56.0759C11.592 52.8269 7.04194 49.7679 7.04194 49.7679L5.21058 57.8619L8.55234 61.4909L3.37922 61.6429L2.1709 65.0629C2.1709 65.0629 6.73986 67.9319 12.2151 67.4379C17.6903 66.9439 17.9923 66.3739 20.4279 69.1099C22.8634 71.8459 27.0925 65.8039 31.6615 67.4379L34.1159 61.1489Z" fill="black"/>
<path d="M42.1163 73.313L35.8481 76.847" stroke="#FBA92D" stroke-width="0.568197" stroke-miterlimit="10"/>
<path d="M53.3758 116.688C53.3758 116.688 70.2923 123.224 84.8865 116.688V145.663C84.8865 145.663 69.7259 148.855 46.4846 144.2" fill="#FFC60A"/>
<path d="M53.3758 116.688C53.3758 116.688 70.2923 123.224 84.8865 116.688V145.663C84.8865 145.663 69.7259 148.855 46.4846 144.2" stroke="black" stroke-width="0.946995" stroke-miterlimit="10" stroke-linecap="round"/>
<path d="M127.33 84.8821L121.175 94.6101C120.156 96.2251 120.628 98.3721 122.233 99.3981C123.837 100.424 125.971 99.9491 126.99 98.3341L133.145 88.6061L127.33 84.8821Z" fill="white" stroke="black" stroke-width="0.946995" stroke-miterlimit="10" stroke-linecap="round"/>
<path d="M129.59 75.7589L135.971 65.6699L137.746 66.8099L136.368 70.7619L138.879 67.5319L144.052 70.8379L142.069 74.6379L144.354 71.0469L146.921 72.6809L140.521 82.7699L129.59 75.7589Z" fill="white" stroke="black" stroke-width="0.946995" stroke-miterlimit="10"/>
<path d="M140.524 82.7099L129.574 75.6989L126.288 80.9049C125.439 82.2349 125.835 84.0019 127.157 84.8569L133.312 88.8089C134.633 89.6639 136.389 89.2649 137.239 87.9349L140.524 82.7099Z" fill="white" stroke="black" stroke-width="0.946995" stroke-miterlimit="10" stroke-linecap="round"/>
<path d="M142.075 74.648L144.038 70.867L138.865 67.561L136.335 70.791L137.713 66.839L135.939 65.699L132.238 71.532C132.238 71.532 131.521 74.857 132.918 74.306C134.315 73.755 137.373 73.603 137.241 75.066C137.128 76.529 139.186 78.581 141.036 78.068C141.678 77.897 142.452 78.163 143.17 78.581L146.889 72.71L144.321 71.057L142.075 74.648Z" fill="black"/>
<path d="M125.576 93.1729C126.067 92.4319 127.049 92.2229 127.785 92.7169C128.521 93.2109 128.729 94.1989 128.238 94.9399L127.747 95.5859C128.257 94.9969 129.144 94.8639 129.824 95.3009C130.56 95.7949 130.768 96.7829 130.277 97.5239L129.824 98.0939C130.353 97.5619 131.183 97.4669 131.825 97.8849C132.561 98.3789 132.769 99.3669 132.278 100.108L124.537 110.292C124.537 110.292 112.53 136.018 84.8706 143.105V121.103C84.8706 121.103 104.241 118.253 113.681 102.464L116.325 96.0229C116.362 95.1489 116.778 94.3509 117.439 93.7999L117.892 93.4199C118.836 92.6409 120.157 92.5079 121.252 93.0779L121.63 93.2869L123.008 91.5009C123.008 91.5009 124.065 90.8359 124.802 91.3489C125.538 91.8619 125.84 92.3369 125.576 93.1729L123.631 95.7569L125.576 93.1729Z" fill="white"/>
<path d="M125.576 93.1729C126.067 92.4319 127.049 92.2229 127.785 92.7169C128.521 93.2109 128.729 94.1989 128.238 94.9399L127.747 95.5859C128.257 94.9969 129.144 94.8639 129.824 95.3009C130.56 95.7949 130.768 96.7829 130.277 97.5239L129.824 98.0939C130.353 97.5619 131.183 97.4669 131.825 97.8849C132.561 98.3789 132.769 99.3669 132.278 100.108L124.537 110.292C124.537 110.292 112.53 136.018 84.8706 143.105V121.103C84.8706 121.103 104.241 118.253 113.681 102.464L116.325 96.0229C116.362 95.1489 116.778 94.3509 117.439 93.7999L117.892 93.4199C118.836 92.6409 120.157 92.5079 121.252 93.0779L121.63 93.2869L123.008 91.5009C123.008 91.5009 124.065 90.8359 124.802 91.3489C125.538 91.8619 125.84 92.3369 125.576 93.1729ZM125.576 93.1729L123.631 95.7569" stroke="black" stroke-width="0.946995" stroke-miterlimit="10" stroke-linecap="round"/>
<path d="M129.611 98.485L127.855 100.575" stroke="black" stroke-width="0.946995" stroke-miterlimit="10"/>
<path d="M127.61 95.8984L125.986 98.1214" stroke="black" stroke-width="0.946995" stroke-miterlimit="10"/>
<path d="M68.199 87.1575V119.742" stroke="black" stroke-width="0.568197" stroke-miterlimit="10"/>
<path d="M68.199 146.533V159.586" stroke="black" stroke-width="0.568197" stroke-miterlimit="10"/>
<path d="M120.547 322.108C120.547 322.108 109.823 314.717 96.7773 322.108C86.8842 327.713 101.743 357.391 109.465 371.337C111.957 375.821 116.658 378.595 121.756 378.595H193.216C196.728 378.595 200.051 377.056 202.335 374.377C206.376 369.627 211.813 361.571 210.133 354.047C207.546 342.381 187.401 327.523 187.401 327.523L120.547 322.108Z" fill="black"/>
<path d="M165.137 249.935L160.55 267.833C160.55 267.833 158.095 272.981 151.563 271.176C145.03 269.371 146.899 264.28 146.899 264.28C146.899 264.242 147.692 261.164 147.711 261.145L148.523 257.934L146.899 256.147C145.144 254.228 144.464 251.531 145.125 248.985L147.824 238.421C147.843 238.345 147.862 238.269 147.881 238.174C149.24 232.854 154.659 229.662 159.945 231.106C165.137 232.531 168.177 237.983 166.837 243.227L166.459 244.71L165.137 249.935Z" fill="white" stroke="black" stroke-width="0.946995" stroke-miterlimit="10" stroke-linecap="round"/>
<path d="M149.746 234.558C149.746 234.558 147.027 239.346 150.237 240.752C153.465 242.158 152.521 243.602 151.653 244.837C151.653 244.837 154.542 244.457 154.9 245.673C155.259 246.889 154.372 249.036 152.276 249.378C152.276 249.378 149.727 252.323 151.275 254.185C152.805 256.047 161.131 259.22 163.642 255.819L168.758 245.483C169.268 244.457 169.551 243.336 169.57 242.177C169.646 238.871 169.381 231.936 166.039 228.383C161.546 223.614 155.334 222.569 156.241 224.716C156.241 224.716 150.463 219.719 148.934 221.809C147.386 223.88 150.766 227.015 150.766 227.015C150.766 227.015 145.894 224.507 144.875 226.73C143.855 228.953 144.762 232.278 149.746 234.558Z" fill="black"/>
<path d="M143.257 263.694H173.144C177.185 263.694 180.772 266.316 182.037 270.173L197.67 318.148C198.802 321.606 198.481 325.387 196.801 328.617L189.268 343.114H120.545V292.327L96.7937 228.088L113.654 218.265L132.59 257.006C134.591 261.091 138.726 263.694 143.257 263.694Z" fill="#345EAB"/>
<path d="M181.935 282.938L189.26 342.902" stroke="black" stroke-width="0.946995" stroke-miterlimit="10"/>
<path d="M100.701 226.333L89.7881 206.041C89.4294 205.3 89.7315 204.388 90.4678 204.027C91.2041 203.666 92.1104 203.97 92.4691 204.711L91.9405 203.856C91.5817 203.115 91.8838 202.203 92.6201 201.842C93.3565 201.481 94.2627 201.785 94.6214 202.526L94.1305 201.69C93.7718 200.949 94.0739 200.037 94.8102 199.676C95.5465 199.315 96.4528 199.619 96.8115 200.36L93.9229 193.672C93.5641 192.931 93.8662 192.019 94.6025 191.658C95.3389 191.297 96.2451 191.601 96.6038 192.342L100.455 200.949L100.833 200.797C101.909 200.398 103.117 200.664 103.91 201.5L104.288 201.899C104.854 202.488 105.138 203.286 105.081 204.103L111.33 220.12L100.701 226.333Z" fill="white" stroke="black" stroke-width="0.568197" stroke-miterlimit="10" stroke-linecap="round"/>
<path d="M92.4929 204.736L93.89 206.883" stroke="black" stroke-width="0.568197" stroke-miterlimit="10"/>
<path d="M94.6357 202.569L95.9007 204.83" stroke="black" stroke-width="0.568197" stroke-miterlimit="10"/>
<path d="M96.8257 200.419L98.3361 203.06" stroke="black" stroke-width="0.568197" stroke-miterlimit="10"/>
</svg>
