<svg width="52" height="52" viewBox="0 0 52 52" fill="none" xmlns="http://www.w3.org/2000/svg">
<g clip-path="url(#clip0_5_1578)">
<path fill-rule="evenodd" clip-rule="evenodd" d="M26 51.96C40.3373 51.96 51.96 40.3373 51.96 26C51.96 11.6627 40.3373 0.039978 26 0.039978C11.6627 0.039978 0.0400391 11.6627 0.0400391 26C0.0400391 40.3373 11.6627 51.96 26 51.96ZM26.0536 36.772C15.0632 45.9563 6.15474 37.0478 15.339 26.0573C6.15474 15.0669 15.0632 6.1584 26.0536 15.3427C37.0419 6.1584 45.9526 15.0669 36.7683 26.0573C45.9526 37.0393 37.0419 45.9563 26.0536 36.772ZM31.43 26.0573C31.43 29.0267 29.023 31.4337 26.0536 31.4337C23.0844 31.4337 20.6773 29.0267 20.6773 26.0573C20.6773 23.088 23.0844 20.681 26.0536 20.681C29.023 20.681 31.43 23.088 31.43 26.0573Z" fill="#FF3F7F"/>
</g>
<defs>
<clipPath id="clip0_5_1578">
<rect width="52" height="52" fill="white"/>
</clipPath>
</defs>
</svg>
