<svg width="52" height="52" viewBox="0 0 52 52" fill="none" xmlns="http://www.w3.org/2000/svg">
<path d="M27.4974 13.44C27.4974 7.33038 32.4503 2.3775 38.5599 2.3775C44.6696 2.3775 49.6224 7.33038 49.6224 13.44C49.6224 19.5496 44.6696 24.5025 38.5599 24.5025H27.4974V13.44Z" fill="#00BBF9"/>
<path d="M24.5099 15.66C24.5099 10.7723 20.5477 6.81 15.6599 6.81C10.7722 6.81 6.80994 10.7723 6.80994 15.66C6.80994 20.5477 10.7722 24.51 15.6599 24.51H24.5099V15.66Z" fill="#F15BB5"/>
<path d="M24.5024 38.56C24.5024 44.6696 19.5496 49.6225 13.4399 49.6225C7.33031 49.6225 2.37744 44.6696 2.37744 38.56C2.37744 32.4504 7.33031 27.4975 13.4399 27.4975H24.5024V38.56Z" fill="#0BE8CA"/>
<path d="M27.49 36.34C27.49 41.2277 31.4523 45.19 36.34 45.19C41.2277 45.19 45.19 41.2277 45.19 36.34C45.19 31.4523 41.2277 27.49 36.34 27.49H27.49V36.34Z" fill="#FEE440"/>
</svg>
