<svg width="123" height="44" viewBox="0 0 123 44" fill="none" xmlns="http://www.w3.org/2000/svg">
<path d="M17.1086 5.7276C17.1086 4.3766 18.7547 3.71419 19.6905 4.68862L36.316 22.0002H17.1086V5.7276Z" fill="#21897E"/>
<path d="M7.49512 10.7271C7.49512 9.37611 9.14117 8.71371 10.077 9.68811L21.9009 22H7.49512V10.7271Z" fill="#FFAB49"/>
<path d="M26.7026 38.2726C26.7026 39.6236 25.0565 40.286 24.1207 39.3116L7.49512 22H26.7026V38.2726Z" fill="#FF8E0A"/>
<path d="M36.312 33.2733C36.312 34.6243 34.666 35.2867 33.7302 34.3123L21.9062 22.0005H36.312V33.2733Z" fill="#4CA59B"/>
<path d="M112.779 32.1526C110.917 32.1526 109.204 31.715 107.64 30.8399C106.094 29.9647 104.865 28.7544 103.953 27.2089C103.04 25.6634 102.584 23.9224 102.584 21.9859C102.584 20.0494 103.04 18.3084 103.953 16.7629C104.865 15.2175 106.094 14.0165 107.64 13.1599C109.204 12.2848 110.917 11.8472 112.779 11.8472C114.641 11.8472 116.345 12.2848 117.89 13.1599C119.436 14.0165 120.655 15.2175 121.549 16.7629C122.461 18.3084 122.918 20.0494 122.918 21.9859C122.918 23.9224 122.461 25.6634 121.549 27.2089C120.655 28.7544 119.426 29.9647 117.862 30.8399C116.317 31.715 114.622 32.1526 112.779 32.1526ZM112.779 26.371C114.008 26.371 114.957 25.98 115.628 25.1979C116.298 24.3972 116.633 23.3266 116.633 21.9859C116.633 20.6266 116.298 19.556 115.628 18.7739C114.957 17.9733 114.008 17.5729 112.779 17.5729C111.531 17.5729 110.572 17.9733 109.902 18.7739C109.232 19.556 108.897 20.6266 108.897 21.9859C108.897 23.3266 109.232 24.3972 109.902 25.1979C110.572 25.98 111.531 26.371 112.779 26.371Z" fill="#0E0E0E"/>
<path d="M94.5462 18.941C94.3732 18.941 94.2157 18.8486 94.1072 18.7136C93.8812 18.4325 93.5902 18.2103 93.2342 18.0472C92.7872 17.8238 92.2472 17.712 91.6142 17.712C90.4227 17.712 89.5007 18.1031 88.8492 18.8851C88.1972 19.6485 87.8717 20.7006 87.8717 22.0412C87.8717 23.5867 88.2347 24.7412 88.9607 25.5046C89.6872 26.268 90.8042 26.6498 92.3127 26.6498C93.3997 26.6498 94.3262 26.3179 95.0922 25.6543C95.4042 25.3837 95.1827 24.9181 94.7692 24.9181H91.3322C91.0562 24.9181 90.8322 24.6942 90.8322 24.4181V21.033C90.8322 20.7569 91.0562 20.533 91.3322 20.533H100.415C100.691 20.533 100.915 20.7569 100.915 21.033V26.5986C100.915 26.687 100.892 26.7739 100.847 26.8498C99.9957 28.2713 98.8362 29.4988 97.3677 30.5321C95.8597 31.5748 93.9512 32.0962 91.6422 32.0962C89.5937 32.0962 87.8062 31.6772 86.2797 30.8393C84.7712 29.9828 83.6077 28.7911 82.7882 27.2642C81.9877 25.7374 81.5872 23.9964 81.5872 22.0412C81.5872 20.0861 81.9877 18.3451 82.7882 16.8183C83.6077 15.2914 84.7712 14.109 86.2797 13.2711C87.7877 12.4146 89.5567 11.9863 91.5862 11.9863C94.1747 11.9863 96.2787 12.6101 97.8987 13.8576C99.3902 14.9931 100.326 16.4988 100.707 18.3747C100.767 18.6722 100.533 18.941 100.229 18.941H94.5462Z" fill="#0E0E0E"/>
<path d="M69.7581 32.1526C67.8961 32.1526 66.1831 31.715 64.6191 30.8399C63.0736 29.9647 61.8446 28.7544 60.9321 27.2089C60.0196 25.6634 59.5636 23.9224 59.5636 21.9859C59.5636 20.0494 60.0196 18.3084 60.9321 16.7629C61.8446 15.2175 63.0736 14.0165 64.6191 13.1599C66.1831 12.2848 67.8961 11.8472 69.7581 11.8472C71.6201 11.8472 73.3236 12.2848 74.8691 13.1599C76.4146 14.0165 77.6346 15.2175 78.5281 16.7629C79.4406 18.3084 79.8966 20.0494 79.8966 21.9859C79.8966 23.9224 79.4406 25.6634 78.5281 27.2089C77.6346 28.7544 76.4056 29.9647 74.8416 30.8399C73.2961 31.715 71.6016 32.1526 69.7581 32.1526ZM69.7581 26.371C70.9871 26.371 71.9366 25.98 72.6071 25.1979C73.2771 24.3972 73.6126 23.3266 73.6126 21.9859C73.6126 20.6266 73.2771 19.556 72.6071 18.7739C71.9366 17.9733 70.9871 17.5729 69.7581 17.5729C68.5106 17.5729 67.5516 17.9733 66.8811 18.7739C66.2111 19.556 65.8756 20.6266 65.8756 21.9859C65.8756 23.3266 66.2111 24.3972 66.8811 25.1979C67.5516 25.98 68.5106 26.371 69.7581 26.371Z" fill="#0E0E0E"/>
<path d="M52.2006 26.764C52.2006 27.0402 52.4246 27.264 52.7006 27.264H57.6776C57.9541 27.264 58.1776 27.4879 58.1776 27.764V31.4563C58.1776 31.7325 57.9541 31.9563 57.6776 31.9563H46.5001C46.224 31.9563 46.0001 31.7325 46.0001 31.4563V12.6816C46.0001 12.4055 46.224 12.1816 46.5001 12.1816H51.7006C51.9766 12.1816 52.2006 12.4055 52.2006 12.6816V26.764Z" fill="#0E0E0E"/>
</svg>
