<svg width="52" height="52" viewBox="0 0 52 52" fill="none" xmlns="http://www.w3.org/2000/svg">
<path d="M26 48.42C38.3822 48.42 48.42 38.3822 48.42 26C48.42 13.6178 38.3822 3.58002 26 3.58002C13.6177 3.58002 3.57996 13.6178 3.57996 26C3.57996 38.3822 13.6177 48.42 26 48.42Z" stroke="#FFC061" stroke-width="2.36" stroke-linecap="round" stroke-linejoin="round"/>
<path opacity="0.7" d="M26.36 27.8054C29.9693 27.8054 32.8953 24.8794 32.8953 21.27C32.8953 17.6606 29.9693 14.7346 26.36 14.7346C22.7506 14.7346 19.8246 17.6606 19.8246 21.27C19.8246 24.8794 22.7506 27.8054 26.36 27.8054Z" fill="#FB007E"/>
<path opacity="0.7" d="M26.36 37.2654C29.9693 37.2654 32.8953 34.3394 32.8953 30.73C32.8953 27.1206 29.9693 24.1946 26.36 24.1946C22.7506 24.1946 19.8246 27.1206 19.8246 30.73C19.8246 34.3394 22.7506 37.2654 26.36 37.2654Z" fill="#00ABCD"/>
</svg>
