<svg width="24" height="24" viewBox="0 0 24 24" fill="none" xmlns="http://www.w3.org/2000/svg">
<path d="M21.6 12C21.5997 10.1654 21.0738 8.36939 20.0845 6.82446C19.0952 5.27954 17.6839 4.05043 16.0177 3.28266C14.3516 2.51488 12.5003 2.24059 10.6831 2.49225C8.8659 2.74391 7.15886 3.51099 5.76407 4.70267C4.36927 5.89435 3.34514 7.46073 2.81291 9.21638C2.28068 10.972 2.26264 12.8434 2.76092 14.609C3.25921 16.3746 4.25295 17.9604 5.62452 19.1787C6.99608 20.3971 8.68801 21.1969 10.5 21.4836L10.5 14.775H8.06282V12H10.5V9.88498C10.5 7.47898 11.9334 6.14998 14.1258 6.14998C14.8458 6.15997 15.5641 6.22254 16.275 6.33718V8.69998H15.0642C14.8579 8.67258 14.648 8.69196 14.4502 8.75668C14.2524 8.82141 14.0717 8.92982 13.9215 9.07388C13.7712 9.21794 13.6553 9.39396 13.5824 9.5889C13.5094 9.78383 13.4813 9.99269 13.5 10.2V12H16.1628L15.7368 14.775H13.5L13.5 21.4836C15.7583 21.1263 17.8149 19.9748 19.2998 18.2363C20.7847 16.4978 21.6004 14.2863 21.6 12Z" fill="#2E6FE8"/>
</svg>
