<svg width="36" height="36" viewBox="0 0 36 36" fill="none" xmlns="http://www.w3.org/2000/svg">
<path d="M18 19.2C18.6627 19.2 19.2 18.6628 19.2 18C19.2 17.3373 18.6627 16.8 18 16.8C17.3372 16.8 16.8 17.3373 16.8 18C16.8 18.6628 17.3372 19.2 18 19.2Z" stroke="#9095A0" stroke-width="0.8" stroke-miterlimit="10" stroke-linecap="round" stroke-linejoin="round"/>
<path d="M22.8 19.2C23.4627 19.2 24 18.6628 24 18C24 17.3373 23.4627 16.8 22.8 16.8C22.1372 16.8 21.6 17.3373 21.6 18C21.6 18.6628 22.1372 19.2 22.8 19.2Z" stroke="#9095A0" stroke-width="0.8" stroke-miterlimit="10" stroke-linecap="round" stroke-linejoin="round"/>
<path d="M13.2 19.2C13.8627 19.2 14.4 18.6628 14.4 18C14.4 17.3373 13.8627 16.8 13.2 16.8C12.5373 16.8 12 17.3373 12 18C12 18.6628 12.5373 19.2 13.2 19.2Z" stroke="#9095A0" stroke-width="0.8" stroke-miterlimit="10" stroke-linecap="round" stroke-linejoin="round"/>
</svg>
