<svg width="16" height="16" viewBox="0 0 16 16" fill="none" xmlns="http://www.w3.org/2000/svg">
<path d="M11.3333 2L3.33333 2C2.97971 2 2.64057 2.14048 2.39052 2.39052C2.14048 2.64057 2 2.97971 2 3.33333L2 12.6667C2 13.0203 2.14048 13.3594 2.39052 13.6095C2.64057 13.8595 2.97971 14 3.33333 14L12.6667 14C13.4 14 14 13.4 14 12.6667L14 4.66667L11.3333 2ZM8 12.6667C6.89333 12.6667 6 11.7733 6 10.6667C6 9.56 6.89333 8.66667 8 8.66667C9.10667 8.66667 10 9.56 10 10.6667C10 11.7733 9.10667 12.6667 8 12.6667ZM10 6L3.33333 6L3.33333 3.33333L10 3.33333L10 6Z" fill="white"/>
</svg>
