<svg width="70" height="70" viewBox="0 0 70 70" fill="none" xmlns="http://www.w3.org/2000/svg">
<g filter="url(#filter0_dd_5_1421)">
<rect x="9" y="5" width="52" height="52" rx="26" fill="#8353E2"/>
<path d="M41.8572 28.4287C41.8572 32.6287 35 39.5715 35 39.5715C35 39.5715 28.1429 32.6287 28.1429 28.4287C28.1429 24.0572 31.6572 21.5715 35 21.5715C38.3429 21.5715 41.8572 24.0572 41.8572 28.4287Z" stroke="white" stroke-width="2.05714" stroke-miterlimit="10" stroke-linecap="square"/>
<path d="M35 31C36.4202 31 37.5714 29.8488 37.5714 28.4286C37.5714 27.0084 36.4202 25.8572 35 25.8572C33.5799 25.8572 32.4286 27.0084 32.4286 28.4286C32.4286 29.8488 33.5799 31 35 31Z" stroke="white" stroke-width="2.05714" stroke-miterlimit="10" stroke-linecap="square"/>
</g>
<defs>
<filter id="filter0_dd_5_1421" x="0" y="0" width="70" height="70" filterUnits="userSpaceOnUse" color-interpolation-filters="sRGB">
<feFlood flood-opacity="0" result="BackgroundImageFix"/>
<feColorMatrix in="SourceAlpha" type="matrix" values="0 0 0 0 0 0 0 0 0 0 0 0 0 0 0 0 0 0 127 0" result="hardAlpha"/>
<feOffset dy="4"/>
<feGaussianBlur stdDeviation="4.5"/>
<feColorMatrix type="matrix" values="0 0 0 0 0.513726 0 0 0 0 0.32549 0 0 0 0 0.886275 0 0 0 0.11 0"/>
<feBlend mode="normal" in2="BackgroundImageFix" result="effect1_dropShadow_5_1421"/>
<feColorMatrix in="SourceAlpha" type="matrix" values="0 0 0 0 0 0 0 0 0 0 0 0 0 0 0 0 0 0 127 0" result="hardAlpha"/>
<feOffset/>
<feGaussianBlur stdDeviation="1"/>
<feColorMatrix type="matrix" values="0 0 0 0 0.513726 0 0 0 0 0.32549 0 0 0 0 0.886275 0 0 0 0.12 0"/>
<feBlend mode="normal" in2="effect1_dropShadow_5_1421" result="effect2_dropShadow_5_1421"/>
<feBlend mode="normal" in="SourceGraphic" in2="effect2_dropShadow_5_1421" result="shape"/>
</filter>
</defs>
</svg>
