<svg width="20" height="20" viewBox="0 0 20 20" fill="none" xmlns="http://www.w3.org/2000/svg">
<path d="M15.5 8C15.5 12.5 10 17.5 10 17.5C10 17.5 4.5 12.5 4.5 8C4.5 6.54131 5.07946 5.14236 6.11091 4.11091C7.14236 3.07946 8.54131 2.5 10 2.5C11.4587 2.5 12.8576 3.07946 13.8891 4.11091C14.9205 5.14236 15.5 6.54131 15.5 8Z" stroke="#9095A0" stroke-linecap="round" stroke-linejoin="round"/>
<path d="M10 10.5C11.3807 10.5 12.5 9.38071 12.5 8C12.5 6.61929 11.3807 5.5 10 5.5C8.61929 5.5 7.5 6.61929 7.5 8C7.5 9.38071 8.61929 10.5 10 10.5Z" stroke="#9095A0" stroke-linecap="round" stroke-linejoin="round"/>
</svg>
