<svg width="100" height="100" viewBox="0 0 100 100" fill="none" xmlns="http://www.w3.org/2000/svg">
<path d="M77.6012 18.27H30.7628C29.8389 18.27 29.09 19.0177 29.09 19.94V83.4C29.09 84.3223 29.8389 85.07 30.7628 85.07H77.6012C78.525 85.07 79.274 84.3223 79.274 83.4V19.94C79.274 19.0177 78.525 18.27 77.6012 18.27Z" fill="white"/>
<path d="M75.9182 88.37C85.1568 88.37 92.6462 80.8932 92.6462 71.67C92.6462 62.4468 85.1568 54.97 75.9182 54.97C66.6796 54.97 59.1902 62.4468 59.1902 71.67C59.1902 80.8932 66.6796 88.37 75.9182 88.37Z" fill="#00BDD6"/>
<path d="M80.1578 66.0325L77.3724 68.7855C76.9588 68.5102 76.3935 68.3725 75.842 68.3725C74.0355 68.3725 72.6292 69.749 72.6292 71.5386C72.6292 72.0892 72.7671 72.6398 73.0429 73.0528L72.0638 74.0164C71.7881 74.2918 71.7881 74.8424 72.0638 75.2554C72.3397 75.5306 72.9049 75.5306 73.3186 75.2554L74.2977 74.2918C75.5524 74.98 77.0829 74.8424 78.1998 73.741C79.3167 72.6398 79.4546 71.1256 78.7513 69.8868L81.5365 67.1337C81.8124 66.8583 81.8124 66.3077 81.5365 65.8947C81.123 65.7571 80.5576 65.7571 80.1439 66.0325H80.1578ZM76.8072 72.6398C76.5314 72.9152 76.104 73.0528 75.6903 73.0528C74.8492 73.0528 74.1597 72.3646 74.1597 71.5386C74.1597 70.7126 74.8629 70.0244 75.6903 70.0244C76.104 70.0244 76.5314 70.162 76.8072 70.4374C77.5103 71.1256 77.5103 72.0892 76.8072 72.6398Z" fill="#4069E5"/>
<path d="M44.5982 24.5573H37.6213C37.2076 24.5573 36.78 24.9703 36.78 25.3833V32.266C36.78 32.679 37.1937 33.092 37.6213 33.092H44.5982C45.0119 33.092 45.4394 32.679 45.4394 32.266V25.3833C45.4394 24.9703 45.0258 24.5573 44.5982 24.5573ZM43.6193 31.4402H38.3244V26.2093H43.6193V31.4402Z" fill="#8353E2"/>
<path d="M49.7564 32.2536H69.8464C70.26 32.2536 70.6876 31.8407 70.6876 31.4277C70.6876 31.0147 70.2739 30.6017 69.8464 30.6017H49.7564C49.3427 30.6017 48.9153 31.0147 48.9153 31.4277C48.9153 31.8407 49.329 32.2536 49.7564 32.2536Z" fill="#00BDD6"/>
<path d="M49.7595 28.0017H60.2251C60.6388 28.0017 61.0663 27.5887 61.0663 27.1757C61.0663 26.7627 60.6526 26.3497 60.2251 26.3497H49.7595C49.3459 26.3497 48.9185 26.7627 48.9185 27.1757C48.9185 27.5887 49.3321 28.0017 49.7595 28.0017Z" fill="#00BDD6"/>
<path d="M49.7564 44.2063H69.8464C70.26 44.2063 70.6876 43.7933 70.6876 43.3803C70.6876 42.9673 70.2739 42.5544 69.8464 42.5544H49.7564C49.3427 42.5544 48.9153 42.9673 48.9153 43.3803C48.9153 43.9309 49.329 44.2063 49.7564 44.2063Z" fill="#00BDD6"/>
<path d="M49.7595 39.9476H60.2251C60.6388 39.9476 61.0663 39.5346 61.0663 39.1217C61.0663 38.7088 60.6526 38.2958 60.2251 38.2958H49.7595C49.3459 38.2958 48.9185 38.7088 48.9185 39.1217C48.9185 39.5346 49.3321 39.9476 49.7595 39.9476Z" fill="#00BDD6"/>
<path d="M43.051 39.3908L39.2868 43.1073L38.1699 41.8685C37.8941 41.5932 37.3288 41.5932 36.9151 41.8685C36.6393 42.1438 36.6393 42.6944 36.9151 43.1073L38.7351 44.8969C38.8731 45.0345 39.1488 45.1723 39.2868 45.1723C39.5625 45.1723 39.7003 45.0345 39.8384 44.8969L44.1679 40.6296C44.4437 40.3543 44.4437 39.8036 44.1679 39.3908C44.0301 39.1154 43.4647 39.1154 43.051 39.3908Z" fill="#8353E2"/>
<path d="M64.5347 54.515C64.5347 54.102 64.1212 53.689 63.6936 53.689H49.7396C49.326 53.689 48.8986 54.102 48.8986 54.515C48.8986 54.928 49.3121 55.3408 49.7396 55.3408H63.6936C64.2452 55.4786 64.5347 55.0656 64.5347 54.515Z" fill="#00BDD6"/>
<path d="M49.7595 51.0781H58.5429C58.9566 51.0781 59.384 50.6652 59.384 50.2522C59.384 49.8392 58.9703 49.4262 58.5429 49.4262H49.7595C49.3459 49.4262 48.9185 49.8392 48.9185 50.2522C48.9185 50.8028 49.3321 51.0781 49.7595 51.0781Z" fill="#00BDD6"/>
<path d="M43.051 50.5158L39.4247 54.2323L38.1699 52.9935C37.8941 52.7182 37.3288 52.7182 36.9151 52.9935C36.6393 53.2688 36.6393 53.8194 36.9151 54.2323L38.7351 56.0219C38.8731 56.1595 39.1488 56.2973 39.2868 56.2973C39.5625 56.2973 39.7003 56.1595 39.8384 56.0219L44.1679 51.7546C44.4437 51.4793 44.4437 50.9286 44.1679 50.5158C44.0301 50.2404 43.4647 50.2404 43.051 50.5158Z" fill="#8353E2"/>
<path d="M10.7096 66.66C7.96063 66.66 5.69116 68.9225 5.69116 71.67C5.69116 74.4175 7.96063 76.68 10.7096 76.68C13.4585 76.68 15.728 74.4175 15.728 71.67C15.728 69.0842 13.4585 66.66 10.7096 66.66ZM10.7096 74.7406C9.09536 74.7406 7.64099 73.4477 7.64099 71.67C7.64099 70.0539 8.93554 68.5994 10.7096 68.5994C12.4836 68.5994 13.7781 69.8923 13.7781 71.67C13.6183 73.4477 12.3238 74.7406 10.7096 74.7406Z" fill="#323842"/>
<path d="M10.7096 68.3092C12.5613 68.3092 14.0552 69.8006 14.0552 71.6492C14.0552 73.4977 12.5613 74.9892 10.7096 74.9892C8.85796 74.9892 7.36401 73.4977 7.36401 71.6492C7.36401 69.8006 8.85796 68.3092 10.7096 68.3092Z" fill="#00BDD6"/>
<path d="M88.454 16.655C90.7685 16.655 92.636 18.5194 92.636 20.83C92.636 23.1406 90.7685 25.005 88.454 25.005C86.1395 25.005 84.272 23.1406 84.272 20.83C84.272 18.5194 86.1395 16.655 88.454 16.655Z" fill="#00BDD6"/>
<path d="M14.478 21.1192C15.1675 21.1192 15.7328 21.6698 15.7328 22.3582C15.7328 23.0464 15.1675 23.597 14.478 23.597C13.7886 23.597 13.2233 23.0464 13.2233 22.3582C13.2233 21.6698 13.7886 21.1192 14.478 21.1192Z" fill="#323842"/>
<path d="M85.0232 30.5942C85.7126 30.5942 86.278 31.1448 86.278 31.8331C86.278 32.5214 85.7126 33.072 85.0232 33.072C84.3337 33.072 83.7684 32.5214 83.7684 31.8331C83.7684 31.1448 84.3337 30.5942 85.0232 30.5942Z" fill="#323842"/>
<path d="M89.4918 49.4187C90.1814 49.4187 90.7466 49.9695 90.7466 50.6577C90.7466 51.3459 90.1814 51.8965 89.4918 51.8965C88.8025 51.8965 88.2371 51.3459 88.2371 50.6577C88.2371 49.9695 88.8025 49.4187 89.4918 49.4187Z" fill="#323842"/>
<path d="M79.0332 10.0042C79.7226 10.0042 80.288 10.5548 80.288 11.2431C80.288 11.9314 79.7226 12.482 79.0332 12.482C78.3438 12.482 77.7784 11.9314 77.7784 11.2431C77.7784 10.5548 78.3438 10.0042 79.0332 10.0042Z" fill="#323842"/>
<path d="M18.8002 46.9594C19.4895 46.9594 20.0549 47.51 20.0549 48.1982C20.0549 48.8865 19.4895 49.4371 18.8002 49.4371C18.1106 49.4371 17.5454 48.8865 17.5454 48.1982C17.5454 47.51 18.1106 46.9594 18.8002 46.9594Z" fill="#323842"/>
<path d="M21.4567 84.736C22.1462 84.736 22.7114 85.2866 22.7114 85.9748C22.7114 86.6632 22.1462 87.2138 21.4567 87.2138C20.7673 87.2138 20.2019 86.6632 20.2019 85.9748C20.2019 85.2866 20.7673 84.736 21.4567 84.736Z" fill="#323842"/>
<path d="M88.2403 59.7518C85.7308 57.2738 82.656 55.622 79.3191 54.9338V17.6292C79.3191 17.2162 78.9054 16.8032 78.478 16.8032H74.1485V11.5723C74.1485 11.1593 73.7348 10.7463 73.3072 10.7463H23.6545C23.2408 10.7463 22.8132 11.1593 22.8132 11.5723V79.5742C22.8132 79.987 23.2269 80.4 23.6545 80.4H28.9492V84.6673C28.9492 85.0803 29.3629 85.4933 29.7903 85.4933H65.5029C72.342 90.5865 81.9664 90.0359 88.2403 83.9791C95.0795 77.234 95.0795 66.3591 88.2403 59.7518ZM28.8251 17.6292V78.7482H24.4956V12.3982H72.48V16.6656H29.6525C29.2388 16.6656 28.8114 17.0784 28.8114 17.6292H28.8251ZM30.6314 83.8413V18.455H77.7748V54.6584C72.7557 54.1078 67.5988 55.8974 63.8208 59.614H63.6827V59.7518C62.1523 61.2659 60.8975 63.1931 59.9184 65.2579C59.0774 67.3227 58.6637 69.5253 58.6637 71.8654C58.6637 76.5456 60.4701 80.813 63.6827 83.9791H30.6314V83.8413ZM89.3572 72.6912H91.5911C91.4531 74.2054 91.1774 75.582 90.7498 76.9586L89.6331 76.5456C89.2194 76.408 88.654 76.5456 88.5161 76.9586C88.3783 77.3716 88.5161 77.9222 88.9298 78.0598L90.0467 78.4728C89.3435 79.8494 88.5161 80.9506 87.5372 82.0519L86.0066 80.5376C85.7309 80.2624 85.1655 80.2624 84.7518 80.5376C84.476 80.813 84.476 81.3636 84.7518 81.7766L86.2824 83.2907C85.1655 84.2543 83.9108 85.0803 82.656 85.6309L82.2423 84.5297C82.1045 84.1167 81.5391 83.8413 81.1254 84.1167C80.7119 84.2543 80.4223 84.8049 80.7119 85.2179L81.1254 86.3191C79.7328 86.7321 78.3402 87.1451 76.7958 87.1451V84.9427C76.7958 84.5297 76.3821 84.1167 75.9547 84.1167C75.5272 84.1167 75.1137 84.5297 75.1137 84.9427V87.2827C73.583 87.1451 72.1904 86.8699 70.784 86.4569L71.1976 85.3555C71.3355 84.9427 71.1976 84.3919 70.784 84.2543C70.3703 84.1167 69.805 84.2543 69.667 84.6673L69.2533 85.7685C67.8607 85.0803 66.744 84.2543 65.627 83.2907L67.1575 81.7766C67.4333 81.5012 67.4333 80.9506 67.1575 80.5376C66.8818 80.2624 66.3164 80.2624 65.9027 80.5376L64.3723 82.0519C63.3932 80.9506 62.566 79.7118 62.0006 78.4728L63.1175 78.0598C63.5312 77.9222 63.8208 77.3716 63.5312 76.9586C63.3932 76.5456 62.8279 76.2704 62.4143 76.5456L61.2973 76.9586C60.8837 75.582 60.4563 74.2054 60.4563 72.6912H62.6901C63.1036 72.6912 63.5312 72.2783 63.5312 71.8654C63.5312 71.4524 63.1175 71.0395 62.6901 71.0395H60.4563C60.5941 69.5253 60.8699 68.1487 61.2973 66.7721L62.4143 67.1851C62.8279 67.3227 63.3932 67.1851 63.5312 66.7721C63.669 66.3591 63.5312 65.8085 63.1175 65.6709L62.0006 65.2579C62.7038 63.8813 63.5312 62.7801 64.5101 61.6789L66.0407 63.1931C66.3164 63.4683 66.8818 63.4683 67.2955 63.1931C67.5712 62.9177 67.5712 62.3671 67.2955 61.9542L65.7649 60.44C66.8818 59.4764 68.1366 58.6504 69.3913 58.0998L69.805 59.201C69.9429 59.614 70.5081 59.8894 70.9218 59.614C71.3355 59.4764 71.625 58.9258 71.3355 58.5128L70.9218 57.4116C72.3146 56.9986 73.7072 56.5856 75.2515 56.5856V58.7882C75.2515 59.201 75.6652 59.614 76.0926 59.614C76.52 59.614 76.9337 59.201 76.9337 58.7882V56.5856C78.4643 56.7232 79.8569 56.9986 81.2634 57.4116L80.8497 58.5128C80.7119 58.9258 80.8497 59.4764 81.2634 59.614C81.6771 59.7518 82.2423 59.614 82.3801 59.201L82.7938 58.0998C84.1866 58.7882 85.3034 59.614 86.4203 60.5776L84.8897 62.0918C84.614 62.3671 84.614 62.9177 84.8897 63.3307C85.1655 63.606 85.7308 63.606 86.1444 63.3307L87.675 61.8165C88.654 62.9177 89.4951 64.1567 90.0467 65.3955L88.9298 65.8085C88.5161 65.9461 88.2266 66.4969 88.5161 66.9097C88.654 67.3227 89.2194 67.5981 89.6331 67.3227L90.7498 66.9097C91.1635 68.2863 91.5911 69.6629 91.5911 71.1771H89.3572C88.9435 71.1771 88.5161 71.5901 88.5161 72.003C88.5161 72.2783 88.9298 72.6912 89.3572 72.6912Z" fill="#323842"/>
<path d="M88.0904 26.2146C91.0137 26.2146 93.3854 23.8744 93.3854 21.1213C93.3854 18.3681 91.0137 15.8904 88.0904 15.8904C85.1672 15.8904 82.7955 18.2305 82.7955 21.1213C82.7955 24.0121 85.1672 26.2146 88.0904 26.2146ZM88.0904 17.6799C90.0485 17.6799 91.5789 19.1941 91.5789 21.1213C91.5789 23.0485 90.0485 24.5627 88.0904 24.5627C86.1324 24.5627 84.602 23.0485 84.602 21.1213C84.602 19.1941 86.1324 17.6799 88.0904 17.6799Z" fill="#323842"/>
</svg>
