<svg width="52" height="52" viewBox="0 0 52 52" fill="none" xmlns="http://www.w3.org/2000/svg">
<path d="M49.6082 43.0885C49.6082 46.693 46.674 49.6272 43.0695 49.6272C42.8418 49.6272 42.6205 49.6146 42.3992 49.5956C38.6303 49.2541 37.0809 46.1175 34.5388 46.1175C31.9967 46.1175 30.4474 49.2478 26.6785 49.5956C26.4571 49.6209 26.2358 49.6272 26.0082 49.6272C22.4037 49.6272 19.4695 46.693 19.4695 43.0885C19.4695 39.484 22.4037 36.5498 26.0082 36.5498C30.2767 36.5498 31.8513 40.0658 34.5388 40.0658C37.2264 40.0658 38.8073 36.5498 43.0695 36.5498C46.674 36.5498 49.6082 39.4841 49.6082 43.0885Z" fill="#81CF4E"/>
<path d="M8.91113 49.6086C5.30662 49.6086 2.37244 46.6745 2.37244 43.07C2.37244 42.8423 2.38509 42.621 2.40406 42.3997C2.74553 38.6308 5.88209 37.0814 5.88209 34.5393C5.88209 31.9972 2.74553 30.4479 2.40406 26.6789C2.37877 26.4576 2.37244 26.2363 2.37244 26.0086C2.37244 22.4042 5.30662 19.47 8.91113 19.47C12.5156 19.47 15.4498 22.4042 15.4498 26.0086C15.4498 30.2771 11.9339 31.8517 11.9339 34.5393C11.9339 37.2268 15.4498 38.8078 15.4498 43.07C15.4498 46.6745 12.5156 49.6086 8.91113 49.6086Z" fill="#2858FF"/>
<path d="M25.9895 32.5387C29.594 32.5387 32.5282 29.6045 32.5282 26C32.5282 22.3956 29.594 19.4614 25.9895 19.4614C22.385 19.4614 19.4508 22.3956 19.4508 26C19.4508 29.6045 22.385 32.5387 25.9895 32.5387Z" fill="#81CF4E"/>
<path d="M8.93832 15.4688C9.05219 15.4688 9.15969 15.4561 9.2735 15.4498C9.38731 15.4498 9.49481 15.4498 9.60868 15.4308C13.3776 15.0894 14.9332 11.9528 17.469 11.9528C20.0048 11.9528 21.5604 15.0894 25.3293 15.4308C25.4368 15.4435 25.5507 15.4435 25.6645 15.4498C25.7783 15.4498 25.8858 15.4688 25.9996 15.4688C26.2273 15.4688 26.4486 15.4561 26.6699 15.4372C30.4389 15.0957 31.9882 11.9592 34.5303 11.9592C35.8899 11.9592 36.9649 12.8571 38.2486 13.7487C39.1402 15.0325 40.0382 16.1075 40.0382 17.4671C40.0382 20.0092 36.9017 21.5585 36.5602 25.3274C36.5476 25.4349 36.5476 25.5487 36.5412 25.6562C36.5412 25.7701 36.5222 25.8776 36.5222 25.9914C36.5222 29.5959 39.4564 32.5301 43.061 32.5301C46.6655 32.5301 49.5997 29.5959 49.5997 25.9914C49.5997 25.8712 49.587 25.7637 49.5807 25.6562C49.5807 25.5487 49.5807 25.4349 49.5617 25.3274C49.2202 21.5585 46.0837 20.0029 46.0837 17.4671C46.0837 14.9313 49.2202 13.3693 49.568 9.60045C49.5807 9.4929 49.5807 9.37908 49.587 9.26527C49.587 9.15146 49.606 9.04396 49.606 8.93009C49.5997 5.32561 46.6655 2.39142 43.061 2.39142C38.7924 2.39142 37.2178 5.90739 34.5303 5.90739C31.8427 5.90739 30.2618 2.39142 25.9996 2.39142C25.8858 2.39142 25.7783 2.40407 25.6645 2.41039C25.5507 2.41039 25.4432 2.41039 25.3293 2.42936C21.5604 2.77084 20.0048 5.90739 17.469 5.90739C14.9332 5.90739 13.3776 2.77084 9.60868 2.42936C9.50118 2.41671 9.38731 2.41671 9.2735 2.41039C9.15969 2.41039 9.05219 2.39142 8.93832 2.39142C5.33385 2.39142 2.39966 5.32561 2.39966 8.93009C2.39966 12.5346 5.33385 15.4688 8.93832 15.4688Z" fill="#81CF4E"/>
</svg>
