<svg width="100" height="100" viewBox="0 0 100 100" fill="none" xmlns="http://www.w3.org/2000/svg">
<path d="M50.0992 54.6322C46.5457 54.6322 43.5917 57.5568 43.5917 61.0665C43.5917 64.576 46.5457 67.5007 50.0992 67.5007C53.6526 67.5007 56.6065 64.576 56.6065 61.0665C56.6065 57.5568 53.6526 54.6322 50.0992 54.6322ZM50.0992 65.5997C47.584 65.5997 45.5073 63.5525 45.5073 61.0665C45.5073 58.5806 47.584 56.5333 50.0992 56.5333C52.6144 56.5333 54.6908 58.5806 54.6908 61.0665C54.6908 63.5525 52.6144 65.5997 50.0992 65.5997Z" fill="#323842"/>
<path d="M82.5923 17.7C85.8297 17.7 88.4416 20.3119 88.4416 23.5493C88.4416 26.7866 85.8297 29.3987 82.5923 29.3987C79.355 29.3987 76.7429 26.7866 76.7429 23.5493C76.7429 20.3119 79.355 17.7 82.5923 17.7Z" fill="#00BDD6"/>
<path d="M82.4467 31.0069C86.5851 31.0069 89.8461 27.7897 89.8461 23.6952C89.8461 19.6007 86.5851 16.3835 82.4467 16.3835C78.3083 16.3835 75.0472 19.6007 75.0472 23.6952C75.0472 27.7897 78.3083 31.0069 82.4467 31.0069ZM82.4467 18.2845C85.5469 18.2845 88.0621 20.7705 88.0621 23.8415C88.0621 26.9124 85.5469 29.3984 82.4467 29.3984C79.3465 29.3984 76.8313 26.9124 76.8313 23.8415C76.8313 20.7705 79.3465 18.2845 82.4467 18.2845Z" fill="#323842"/>
<path d="M18.6304 24.9992C21.2042 24.9992 23.2807 27.0759 23.2807 29.6495C23.2807 32.2231 21.2042 34.2998 18.6304 34.2998C16.0568 34.2998 13.9802 32.2231 13.9802 29.6495C13.9802 27.0759 16.0568 24.9992 18.6304 24.9992Z" fill="#00BDD6"/>
<path d="M18.7843 35.6768C21.8843 35.6768 24.3996 33.1908 24.3996 30.1198C24.3996 27.0489 21.8843 24.5629 18.7843 24.5629C15.684 24.5629 13.1688 27.0489 13.1688 30.1198C13.1688 33.1908 15.684 35.6768 18.7843 35.6768ZM18.7843 26.464C20.8607 26.464 22.484 28.0726 22.484 30.1198C22.484 32.1671 20.8607 33.7756 18.7843 33.7756C16.7076 33.7756 15.0845 32.1671 15.0845 30.1198C15.0845 28.0726 16.7076 26.464 18.7843 26.464Z" fill="#323842"/>
<path d="M66.7767 15.9629C67.5079 15.9629 68.1074 15.378 68.1074 14.6468C68.1074 13.9156 67.5079 13.3307 66.7767 13.3307C66.0456 13.3307 65.4459 13.9156 65.4459 14.6468C65.4459 15.378 66.0456 15.9629 66.7767 15.9629Z" fill="#323842"/>
<path d="M86.5731 48.5062C85.8418 48.5062 85.2423 49.091 85.2423 49.8223C85.2423 50.5535 85.8418 51.1383 86.5731 51.1383C87.3043 51.1383 87.9038 50.5535 87.9038 49.8223C87.9038 49.091 87.3043 48.5062 86.5731 48.5062Z" fill="#323842"/>
<path d="M70.9039 35.519C71.6351 35.519 72.2346 34.9341 72.2346 34.2028C72.2346 33.4717 71.6351 32.8867 70.9039 32.8867C70.1726 32.8867 69.5731 33.4717 69.5731 34.2028C69.5731 34.9341 70.1726 35.519 70.9039 35.519Z" fill="#323842"/>
<path d="M32.0964 18.2948C32.8276 18.2948 33.4271 17.7098 33.4271 16.9787C33.4271 16.2475 32.8276 15.6626 32.0964 15.6626C31.3652 15.6626 30.7656 16.2475 30.7656 16.9787C30.7656 17.7098 31.3652 18.2948 32.0964 18.2948Z" fill="#323842"/>
<path d="M14.2238 49.8223C14.2238 50.5535 14.8233 51.1383 15.5545 51.1383C16.2857 51.1383 16.8853 50.5535 16.8853 49.8223C16.8853 49.091 16.2857 48.5062 15.5545 48.5062C14.8233 48.5062 14.2238 49.091 14.2238 49.8223Z" fill="#323842"/>
<path d="M49.7488 22.0698C56.6282 22.0698 62.1786 27.2937 62.1786 33.7685C62.1786 40.2433 56.6282 45.4672 49.7488 45.4672C42.8694 45.4672 37.3188 40.2433 37.3188 33.7685C37.3188 27.2937 42.8694 22.0698 49.7488 22.0698Z" fill="white"/>
<path d="M27.1363 69.5414V55.6491C21.872 56.2341 19.0934 65.1543 18.3623 69.5414H27.1363Z" fill="#8353E2"/>
<path d="M72.3611 69.5414V55.6491C77.6254 56.2341 81.1351 64.7537 81.1351 69.5414H72.3611Z" fill="#8353E2"/>
<path d="M89.2319 77.5442H11.728C9.70892 77.5442 8.07214 79.1809 8.07214 81.2C8.07214 83.2191 9.70892 84.8558 11.728 84.8558H89.2319C91.251 84.8558 92.8878 83.2191 92.8878 81.2C92.8878 79.1809 91.251 77.5442 89.2319 77.5442Z" fill="#00BDD6"/>
<path d="M15.4474 73.1728C15.4474 71.5576 16.7569 70.2482 18.3721 70.2482H27.1461V76.0975H18.3721C16.7569 76.0975 15.4474 74.7881 15.4474 73.1728Z" fill="#4069E5"/>
<path d="M85.5195 73.1728C85.5195 71.5576 84.2102 70.2482 82.5948 70.2482H73.8208V76.0975H82.5948C84.21 76.0975 85.5195 74.7881 85.5195 73.1728Z" fill="#4069E5"/>
<path fill-rule="evenodd" clip-rule="evenodd" d="M85.1513 75.839H88.3831C91.1908 75.839 93.5597 78.0325 93.4136 80.8111C93.4136 83.5895 91.1908 85.783 88.3831 85.783H11.6104C8.80271 85.783 6.57996 83.5895 6.57996 80.8111C6.57996 78.0325 8.80271 75.839 11.6104 75.839H14.8714C14.2718 75.1079 13.9794 74.0843 13.9794 73.0606C13.9794 70.8671 15.6026 68.9661 17.6791 68.5274C17.6791 62.6781 20.7938 57.1211 25.9705 54.1965V51.1255C25.9705 48.0547 28.4858 45.5687 31.5859 45.5687H42.8313C38.6929 43.2289 35.8851 38.842 35.8851 33.7238C35.8851 26.1196 42.1002 19.9778 49.792 19.9778C57.4839 19.9778 63.6988 26.1196 63.6988 33.7238C63.6988 38.6957 60.8912 43.2289 56.7528 45.5687H68.2906C71.3906 45.5687 73.906 48.0547 73.906 51.1255V54.1965C75.8362 55.2202 78.3514 57.1211 80.1209 60.3382C81.905 63.4092 82.3437 66.3339 82.3437 68.5274C84.4202 68.9661 86.0434 70.8671 86.0434 73.0606C86.0434 74.0843 85.7363 75.1079 85.1513 75.839ZM74.0814 56.3992V68.5274H80.5888C80.5888 66.6263 80.1354 63.9942 78.6585 61.3619C77.3318 59.0293 75.6997 57.4232 74.0814 56.3992ZM81.4663 70.2822H74.0668V75.839H81.4663C83.0895 75.839 84.2739 74.523 84.2739 73.0606C84.2739 71.5984 83.0895 70.2822 81.4663 70.2822ZM31.6151 47.4697C29.5386 47.4697 27.9154 49.0782 27.9154 51.1255V75.839H72.2973V51.1255C72.2973 49.0782 70.6742 47.4697 68.5977 47.4697H31.6151ZM26.146 68.5274V56.39C22.1539 59.1684 19.6387 63.5555 19.6387 68.5274H26.146ZM26.146 70.2822H18.7466C17.1233 70.2822 15.9389 71.5984 15.9389 73.0606C15.9389 74.523 17.1233 75.839 18.7466 75.839H26.146V70.2822ZM11.7859 84.0282H88.4123C90.1964 84.0282 91.8196 82.5658 91.8196 80.8111C91.8196 79.0563 90.3279 77.5938 88.5586 77.5938H11.7859C10.0018 77.5938 8.52487 79.0563 8.52487 80.8111C8.52487 82.5658 10.0164 84.0282 11.7859 84.0282ZM60.7157 33.7234C60.7157 39.7807 55.8054 44.691 49.7481 44.691C43.691 44.691 38.7807 39.7807 38.7807 33.7234C38.7807 27.6662 43.691 22.7559 49.7481 22.7559C55.8054 22.7559 60.7157 27.6662 60.7157 33.7234Z" fill="#323842"/>
</svg>
