<svg width="24" height="24" viewBox="0 0 24 24" fill="none" xmlns="http://www.w3.org/2000/svg">
<path d="M21.6 6.05995C20.88 6.35995 20.16 6.59995 19.32 6.65995C20.16 6.17995 20.76 5.39995 21.06 4.49995C20.28 4.97995 19.44 5.27995 18.54 5.45995C17.82 4.67995 16.8 4.19995 15.72 4.19995C13.56 4.19995 11.76 5.93995 11.76 8.15995C11.76 8.45995 11.82 8.75995 11.88 9.05995C8.58003 8.87995 5.70003 7.31995 3.72003 4.91995C3.36003 5.51995 3.18003 6.17995 3.18003 6.89995C3.18003 8.27995 3.90003 9.47995 4.92003 10.2C4.26003 10.2 3.66003 10.02 3.12003 9.71995V9.77995C3.12003 11.7 4.50003 13.26 6.30003 13.62C5.94003 13.68 5.64003 13.74 5.28003 13.74C5.04003 13.74 4.80003 13.74 4.56003 13.68C5.04003 15.24 6.54003 16.38 8.22003 16.44C6.90003 17.52 5.16003 18.12 3.30003 18.12C3.00003 18.12 2.64003 18.12 2.34003 18.06C4.14003 19.14 6.24003 19.8 8.46003 19.8C15.72 19.8 19.68 13.8 19.68 8.57995C19.68 8.39995 19.68 8.21995 19.68 8.09995C20.4 7.49995 21.06 6.83995 21.6 6.05995Z" fill="#2EBAE8"/>
</svg>
