<svg width="24" height="24" viewBox="0 0 24 24" fill="none" xmlns="http://www.w3.org/2000/svg">
<path d="M21.42 8.15997C21.42 8.15997 21.24 6.83997 20.64 6.23997C19.92 5.45997 19.08 5.45997 18.72 5.39997C16.02 5.21997 12 5.21997 12 5.21997C12 5.21997 7.98002 5.21997 5.28002 5.39997C4.92002 5.45997 4.08002 5.45997 3.36002 6.23997C2.76002 6.83997 2.58002 8.15997 2.58002 8.15997C2.58002 8.15997 2.40002 9.71997 2.40002 11.28L2.40002 12.72C2.40002 14.28 2.58002 15.84 2.58002 15.84C2.58002 15.84 2.76002 17.16 3.36002 17.76C4.08002 18.54 5.04002 18.48 5.46002 18.6C7.02002 18.72 12 18.78 12 18.78C12 18.78 16.02 18.78 18.72 18.6C19.08 18.54 19.92 18.54 20.64 17.76C21.24 17.16 21.42 15.84 21.42 15.84C21.42 15.84 21.6 14.28 21.6 12.72L21.6 11.28C21.6 9.71997 21.42 8.15997 21.42 8.15997ZM10.02 14.52L10.02 9.11997L15.18 11.82L10.02 14.52Z" fill="#E82E2E"/>
</svg>
