<svg width="99" height="99" viewBox="0 0 99 99" fill="none" xmlns="http://www.w3.org/2000/svg">
<g filter="url(#filter0_dd_5_1455)">
<rect x="17" y="9" width="65" height="65" rx="32.5" fill="#ED7D2D"/>
<path opacity="0.3" d="M38.3333 30.3334L61.6666 30.3334L61.6666 53.6667L38.3333 53.6667L38.3333 30.3334Z" fill="#FEF6F1"/>
<path d="M61.6667 27L38.3333 27C36.5 27 35 28.5 35 30.3333L35 53.6667C35 55.5 36.5 57 38.3333 57L61.6667 57C63.5 57 65 55.5 65 53.6667V30.3333C65 28.5 63.5 27 61.6667 27ZM61.6667 53.6667L38.3333 53.6667L38.3333 30.3333L61.6667 30.3333L61.6667 53.6667Z" fill="#FEF6F1"/>
<path d="M41.6667 42H45L45 50.3333H41.6667L41.6667 42ZM55 33.6666L58.3334 33.6666V50.3333H55V33.6666ZM48.3334 45.3333H51.6667V50.3333H48.3334L48.3334 45.3333ZM48.3334 38.6666H51.6667V42H48.3334V38.6666Z" fill="#FEF6F1"/>
</g>
<defs>
<filter id="filter0_dd_5_1455" x="0" y="0" width="99" height="99" filterUnits="userSpaceOnUse" color-interpolation-filters="sRGB">
<feFlood flood-opacity="0" result="BackgroundImageFix"/>
<feColorMatrix in="SourceAlpha" type="matrix" values="0 0 0 0 0 0 0 0 0 0 0 0 0 0 0 0 0 0 127 0" result="hardAlpha"/>
<feOffset dy="8"/>
<feGaussianBlur stdDeviation="8.5"/>
<feColorMatrix type="matrix" values="0 0 0 0 0.929412 0 0 0 0 0.490196 0 0 0 0 0.176471 0 0 0 0.15 0"/>
<feBlend mode="normal" in2="BackgroundImageFix" result="effect1_dropShadow_5_1455"/>
<feColorMatrix in="SourceAlpha" type="matrix" values="0 0 0 0 0 0 0 0 0 0 0 0 0 0 0 0 0 0 127 0" result="hardAlpha"/>
<feOffset/>
<feGaussianBlur stdDeviation="1"/>
<feColorMatrix type="matrix" values="0 0 0 0 0.929412 0 0 0 0 0.490196 0 0 0 0 0.176471 0 0 0 0.12 0"/>
<feBlend mode="normal" in2="effect1_dropShadow_5_1455" result="effect2_dropShadow_5_1455"/>
<feBlend mode="normal" in="SourceGraphic" in2="effect2_dropShadow_5_1455" result="shape"/>
</filter>
</defs>
</svg>
