<svg width="16" height="16" viewBox="0 0 16 16" fill="none" xmlns="http://www.w3.org/2000/svg">
<path d="M13.3334 4.00004L10.6667 4.00004V2.66671C10.6667 1.92671 10.0734 1.33337 9.33337 1.33337L6.66671 1.33337C5.92671 1.33337 5.33337 1.92671 5.33337 2.66671V4.00004L2.66671 4.00004C1.92671 4.00004 1.34004 4.59337 1.34004 5.33337L1.33337 12.6667C1.33337 13.4067 1.92671 14 2.66671 14L13.3334 14C14.0734 14 14.6667 13.4067 14.6667 12.6667L14.6667 5.33337C14.6667 4.59337 14.0734 4.00004 13.3334 4.00004ZM9.33337 4.00004H6.66671L6.66671 2.66671L9.33337 2.66671V4.00004Z" fill="#8353E2"/>
</svg>
