<svg width="123" height="44" viewBox="0 0 123 44" fill="none" xmlns="http://www.w3.org/2000/svg">
<path d="M17.1085 5.7276C17.1085 4.3766 18.7546 3.71419 19.6904 4.68862L36.3159 22.0002H17.1085V5.7276Z" fill="#21897E"/>
<path d="M7.495 10.7271C7.495 9.37611 9.14104 8.71371 10.0769 9.68811L21.9008 22H7.495V10.7271Z" fill="#FFAB49"/>
<path d="M26.7024 38.2726C26.7024 39.6236 25.0564 40.286 24.1205 39.3116L7.495 22H26.7024V38.2726Z" fill="#FF8E0A"/>
<path d="M36.312 33.2733C36.312 34.6243 34.666 35.2867 33.7302 34.3123L21.9062 22.0005H36.312V33.2733Z" fill="#4CA59B"/>
<path d="M112.778 32.1526C110.916 32.1526 109.203 31.715 107.639 30.8399C106.094 29.9647 104.865 28.7544 103.952 27.2089C103.04 25.6634 102.584 23.9224 102.584 21.9859C102.584 20.0494 103.04 18.3084 103.952 16.7629C104.865 15.2175 106.094 14.0165 107.639 13.1599C109.203 12.2848 110.916 11.8472 112.778 11.8472C114.64 11.8472 116.344 12.2848 117.89 13.1599C119.435 14.0165 120.655 15.2175 121.548 16.7629C122.461 18.3084 122.917 20.0494 122.917 21.9859C122.917 23.9224 122.461 25.6634 121.548 27.2089C120.655 28.7544 119.426 29.9647 117.862 30.8399C116.316 31.715 114.622 32.1526 112.778 32.1526ZM112.778 26.371C114.007 26.371 114.957 25.98 115.627 25.1979C116.298 24.3972 116.633 23.3266 116.633 21.9859C116.633 20.6266 116.298 19.556 115.627 18.7739C114.957 17.9733 114.007 17.5729 112.778 17.5729C111.531 17.5729 110.572 17.9733 109.901 18.7739C109.231 19.556 108.896 20.6266 108.896 21.9859C108.896 23.3266 109.231 24.3972 109.901 25.1979C110.572 25.98 111.531 26.371 112.778 26.371Z" fill="white"/>
<path d="M94.546 18.941C94.373 18.941 94.2155 18.8486 94.107 18.7136C93.881 18.4325 93.59 18.2103 93.234 18.0472C92.787 17.8238 92.247 17.712 91.614 17.712C90.4225 17.712 89.5005 18.1031 88.849 18.8851C88.197 19.6485 87.8715 20.7006 87.8715 22.0412C87.8715 23.5867 88.2345 24.7412 88.9605 25.5046C89.687 26.268 90.804 26.6498 92.3125 26.6498C93.3995 26.6498 94.326 26.3179 95.092 25.6543C95.404 25.3837 95.1825 24.9181 94.769 24.9181H91.332C91.056 24.9181 90.832 24.6942 90.832 24.4181V21.033C90.832 20.7569 91.056 20.533 91.332 20.533H100.415C100.691 20.533 100.915 20.7569 100.915 21.033V26.5986C100.915 26.687 100.892 26.7739 100.847 26.8498C99.9955 28.2713 98.836 29.4988 97.3675 30.5321C95.8595 31.5748 93.951 32.0962 91.642 32.0962C89.5935 32.0962 87.806 31.6772 86.2795 30.8393C84.771 29.9828 83.6075 28.7911 82.788 27.2642C81.9875 25.7374 81.587 23.9964 81.587 22.0412C81.587 20.0861 81.9875 18.3451 82.788 16.8183C83.6075 15.2914 84.771 14.109 86.2795 13.2711C87.7875 12.4146 89.5565 11.9863 91.586 11.9863C94.1745 11.9863 96.2785 12.6101 97.8985 13.8576C99.39 14.9931 100.326 16.4988 100.707 18.3747C100.767 18.6722 100.533 18.941 100.229 18.941H94.546Z" fill="white"/>
<path d="M69.758 32.1526C67.896 32.1526 66.183 31.715 64.619 30.8399C63.0735 29.9647 61.8445 28.7544 60.932 27.2089C60.0195 25.6634 59.5635 23.9224 59.5635 21.9859C59.5635 20.0494 60.0195 18.3084 60.932 16.7629C61.8445 15.2175 63.0735 14.0165 64.619 13.1599C66.183 12.2848 67.896 11.8472 69.758 11.8472C71.62 11.8472 73.3235 12.2848 74.869 13.1599C76.4145 14.0165 77.6345 15.2175 78.528 16.7629C79.4405 18.3084 79.8965 20.0494 79.8965 21.9859C79.8965 23.9224 79.4405 25.6634 78.528 27.2089C77.6345 28.7544 76.4055 29.9647 74.8415 30.8399C73.296 31.715 71.6015 32.1526 69.758 32.1526ZM69.758 26.371C70.987 26.371 71.9365 25.98 72.607 25.1979C73.277 24.3972 73.6125 23.3266 73.6125 21.9859C73.6125 20.6266 73.277 19.556 72.607 18.7739C71.9365 17.9733 70.987 17.5729 69.758 17.5729C68.5105 17.5729 67.5515 17.9733 66.881 18.7739C66.211 19.556 65.8755 20.6266 65.8755 21.9859C65.8755 23.3266 66.211 24.3972 66.881 25.1979C67.5515 25.98 68.5105 26.371 69.758 26.371Z" fill="white"/>
<path d="M52.2005 26.764C52.2005 27.0402 52.4245 27.264 52.7005 27.264H57.6775C57.954 27.264 58.1775 27.4879 58.1775 27.764V31.4563C58.1775 31.7325 57.954 31.9563 57.6775 31.9563H46.5C46.2239 31.9563 46 31.7325 46 31.4563V12.6816C46 12.4055 46.2239 12.1816 46.5 12.1816H51.7005C51.9765 12.1816 52.2005 12.4055 52.2005 12.6816V26.764Z" fill="white"/>
</svg>
