<svg width="52" height="52" viewBox="0 0 52 52" fill="none" xmlns="http://www.w3.org/2000/svg">
<path d="M26.0289 12.6074L39.3944 26.0028L44.51 20.9004L49.6124 26.016L26.0389 2.38953L31.1412 7.50512L26.0289 12.6074Z" fill="#FF5A0E"/>
<path d="M20.8565 44.5016L25.9687 39.3993L12.6033 26.0006L7.48767 31.1063L25.9588 49.6172L20.8565 44.5016Z" fill="#6EE8FC"/>
<path d="M26.0083 12.5951L20.9026 7.47952L26.0182 2.3772L7.50732 20.8483L12.6096 25.9606L26.0083 12.5951Z" fill="#6A0EF0"/>
<path d="M24.3557 4.03793L20.9113 7.47521L26.0156 12.5902L31.1305 7.48589L27.6933 4.04143C26.7726 3.11882 25.2783 3.11726 24.3557 4.03793Z" fill="#FF5AF0"/>
<path d="M7.48585 20.8714L4.04137 24.3087C3.11877 25.2294 3.1172 26.7236 4.03787 27.6462L7.47511 31.0907L12.5901 25.9864L7.48585 20.8714Z" fill="#6EE8FC"/>
<path d="M39.3981 26.0387L25.9995 39.4075L31.1051 44.5231L25.9895 49.6254L49.616 26.0519L44.5004 31.1543L39.3981 26.0387Z" fill="#FFBE0E"/>
<path d="M44.5269 20.9114L39.4119 26.0157L44.5161 31.1307L47.9606 27.6934C48.8832 26.7727 48.8848 25.2785 47.9641 24.3559L44.5269 20.9114Z" fill="#FFBE0E"/>
<path d="M25.9863 39.412L20.8713 44.5163L24.3086 47.9607C25.2293 48.8833 26.7235 48.8849 27.6461 47.9642L31.0906 44.527L25.9863 39.412Z" fill="#47E89B"/>
</svg>
