<svg width="30" height="30" viewBox="0 0 30 30" fill="none" xmlns="http://www.w3.org/2000/svg">
<path d="M24.8572 21.0815L18.8679 18.5101C18.6713 18.4259 18.454 18.4024 18.244 18.4427C18.0339 18.4829 17.8407 18.5852 17.6893 18.7362L15.1886 21.2005C13.8827 20.4152 12.6693 19.4854 11.5714 18.4287C10.5161 17.3317 9.58608 16.1207 8.79858 14.818L11.2629 12.3215C11.4133 12.1697 11.515 11.9764 11.5547 11.7664C11.5944 11.5563 11.5704 11.3392 11.4857 11.143L8.9143 5.15368C8.81318 4.91844 8.63116 4.72719 8.4012 4.61457C8.17125 4.50195 7.90856 4.47541 7.66073 4.53975L2.94644 5.78582C2.71071 5.84656 2.50268 5.98576 2.35662 6.18051C2.21056 6.37526 2.13517 6.61394 2.14287 6.85725C2.44295 12.3363 4.72155 17.5201 8.55537 21.4458C12.4822 25.2811 17.6684 27.5595 23.1493 27.8573C23.3925 27.865 23.631 27.7898 23.8258 27.6439C24.0205 27.4981 24.1598 27.2903 24.2207 27.0548L25.4657 22.3405C25.5319 22.0925 25.5068 21.8291 25.3951 21.598C25.2834 21.367 25.0925 21.1837 24.8572 21.0815Z" fill="#9095A0"/>
<path d="M21.4286 12.857C21.4286 13.1412 21.5414 13.4137 21.7424 13.6147C21.9433 13.8156 22.2158 13.9285 22.5 13.9285C22.7841 13.9285 23.0567 13.8156 23.2576 13.6147C23.4585 13.4137 23.5714 13.1412 23.5714 12.857C23.5697 11.1526 22.8919 9.51845 21.6866 8.31323C20.4814 7.10801 18.8473 6.43017 17.1428 6.42847C16.8587 6.42847 16.5862 6.54135 16.3852 6.74228C16.1843 6.94321 16.0714 7.21573 16.0714 7.4999C16.0714 7.78406 16.1843 8.05658 16.3852 8.25751C16.5862 8.45844 16.8587 8.57132 17.1428 8.57132C18.2795 8.57132 19.3696 9.02285 20.1733 9.82658C20.977 10.6303 21.4286 11.7204 21.4286 12.857Z" fill="#9095A0"/>
<path d="M17.1428 2.14282C16.8587 2.14282 16.5862 2.2557 16.3852 2.45664C16.1843 2.65757 16.0714 2.93009 16.0714 3.21425C16.0714 3.49841 16.1843 3.77093 16.3852 3.97187C16.5862 4.1728 16.8587 4.28568 17.1428 4.28568C19.4153 4.28823 21.594 5.19211 23.2009 6.79901C24.8078 8.40591 25.7117 10.5846 25.7143 12.8571C25.7143 13.1413 25.8271 13.4138 26.0281 13.6147C26.229 13.8157 26.5015 13.9285 26.7857 13.9285C27.0699 13.9285 27.3424 13.8157 27.5433 13.6147C27.7442 13.4138 27.8571 13.1413 27.8571 12.8571C27.854 10.0165 26.7242 7.29305 24.7155 5.28441C22.7069 3.27577 19.9835 2.14594 17.1428 2.14282Z" fill="#9095A0"/>
</svg>
