<svg width="51" height="38" viewBox="0 0 51 38" fill="none" xmlns="http://www.w3.org/2000/svg">
<g clip-path="url(#clip0_5_1391)">
<mask id="mask0_5_1391" style="mask-type:luminance" maskUnits="userSpaceOnUse" x="0" y="1" width="50" height="35">
<path d="M49.1454 1.63281H0.433838V35.9158H49.1454V1.63281Z" fill="white"/>
</mask>
<g mask="url(#mask0_5_1391)">
<path d="M14.3964 3.317C13.7271 6.03762 12.2505 8.52767 10.1359 10.5016C8.02079 12.4756 5.35345 13.8538 2.43896 14.4789C1.93071 14.581 1.47501 14.8423 1.14682 15.2187C0.818681 15.5951 0.637648 16.0649 0.633545 16.5502V20.6712C0.633591 20.9805 0.706196 21.2863 0.846294 21.5667C0.986392 21.847 1.19052 22.0953 1.4444 22.2939C1.69827 22.4929 1.99571 22.6373 2.31583 22.7174C2.6359 22.7974 2.97086 22.8108 3.2972 22.7572C8.56201 21.8643 13.3762 19.4058 17.0204 15.7486C20.6646 12.091 22.9434 7.43146 23.5164 2.46521C23.5284 2.36052 23.5164 2.2541 23.4818 2.15374C23.4468 2.05338 23.3901 1.96123 23.3145 1.8825C23.2393 1.8042 23.1471 1.74104 23.0439 1.69778C22.9406 1.65452 22.829 1.63202 22.7161 1.63159H16.6157C16.0957 1.63549 15.5927 1.80463 15.1893 2.11091C14.786 2.41719 14.5061 2.84244 14.3964 3.317Z" fill="#E05858"/>
</g>
<mask id="mask1_5_1391" style="mask-type:luminance" maskUnits="userSpaceOnUse" x="0" y="2" width="50" height="35">
<path d="M49.0117 2.42822H0.300171V36.7112H49.0117V2.42822Z" fill="white"/>
</mask>
<g mask="url(#mask1_5_1391)">
<path d="M25.7596 35.5552C25.7472 35.6599 25.7587 35.7659 25.7928 35.8662C25.8269 35.9666 25.8836 36.0592 25.9588 36.1379C26.0339 36.2166 26.1261 36.2794 26.2289 36.3226C26.3317 36.3659 26.4433 36.3884 26.5562 36.3888H32.6567C33.1771 36.3849 33.6805 36.2153 34.0839 35.9082C34.4873 35.6015 34.7666 35.1754 34.8759 34.6999C35.5457 31.9789 37.0228 29.4888 39.1383 27.5149C41.2538 25.5409 43.9216 24.1627 46.837 23.5384C47.3455 23.4363 47.8019 23.1755 48.1301 22.7991C48.4584 22.4223 48.6391 21.9525 48.6427 21.4667V17.3458C48.6423 17.0364 48.5699 16.7306 48.4298 16.4503C48.2896 16.1699 48.0854 15.9216 47.8319 15.7231C47.5778 15.5241 47.2805 15.3796 46.9601 15.2996C46.6402 15.2195 46.305 15.2061 45.9791 15.2598C42.4792 15.8459 39.1577 17.1351 36.2442 19.0381C33.8331 20.6067 31.7393 22.5616 30.0589 24.812C27.6755 27.9964 26.1967 31.6925 25.7596 35.5552Z" fill="#E05858"/>
</g>
<mask id="mask2_5_1391" style="mask-type:luminance" maskUnits="userSpaceOnUse" x="0" y="1" width="50" height="35">
<path d="M49.0117 1.63281H0.300171V35.9158H49.0117V1.63281Z" fill="white"/>
</mask>
<g mask="url(#mask2_5_1391)">
<path d="M32.6649 1.63599H26.5608C26.4478 1.63642 26.3363 1.65891 26.2334 1.70217C26.1306 1.74543 26.0384 1.80859 25.9633 1.8869C25.8882 1.96563 25.8315 2.05821 25.7973 2.15857C25.7632 2.25893 25.7517 2.36492 25.7641 2.46961C26.1979 6.33143 27.6759 10.0267 30.0593 13.2093C31.7401 15.4593 33.8344 17.4142 36.245 18.9832C39.1599 20.8824 42.4809 22.1702 45.9795 22.7581C46.3058 22.8118 46.641 22.7979 46.9609 22.7179C47.2809 22.6379 47.5787 22.4934 47.8322 22.2948C48.0862 22.0958 48.2905 21.8475 48.4306 21.5672C48.5707 21.2868 48.6431 20.9814 48.6431 20.6721V16.5546C48.639 16.0693 48.4583 15.5995 48.13 15.2231C47.8018 14.8467 47.3459 14.5854 46.8378 14.4833C43.9229 13.8582 41.2556 12.48 39.141 10.506C37.0264 8.53206 35.5498 6.04202 34.8804 3.32139C34.7698 2.8477 34.4909 2.42332 34.0884 2.11704C33.686 1.81076 33.1844 1.64118 32.6649 1.63599Z" fill="#F5CBCB"/>
</g>
<mask id="mask3_5_1391" style="mask-type:luminance" maskUnits="userSpaceOnUse" x="0" y="2" width="50" height="35">
<path d="M49.1408 2.42822H0.429199V36.7112H49.1408V2.42822Z" fill="white"/>
</mask>
<g mask="url(#mask3_5_1391)">
<path d="M19.2166 24.8127C17.5362 22.5619 15.4424 20.6074 13.0313 19.0388C10.1178 17.1358 6.79632 15.8462 3.29659 15.2605C2.9703 15.2068 2.63529 15.2203 2.31517 15.3003C1.9951 15.3803 1.69766 15.5248 1.44379 15.7238C1.18992 15.9224 0.985739 16.1707 0.845687 16.451C0.705589 16.7313 0.632981 17.0367 0.632935 17.346V21.4674C0.636346 21.9528 0.817105 22.423 1.14538 22.7994C1.47366 23.1762 1.92977 23.4371 2.43835 23.5387C5.35385 24.1625 8.02166 25.5408 10.1367 27.5148C12.2513 29.4887 13.7275 31.9792 14.3959 34.7007C14.5061 35.1757 14.7864 35.6018 15.1902 35.9085C15.5945 36.2156 16.0979 36.3852 16.6188 36.3895H22.7193C22.8322 36.3891 22.9438 36.3666 23.0466 36.3234C23.1494 36.2801 23.2416 36.2169 23.3167 36.1386C23.3919 36.0599 23.4486 35.9673 23.4827 35.8669C23.5168 35.7666 23.5283 35.6606 23.5159 35.5559C23.0788 31.6932 21.6 27.9967 19.2166 24.8127Z" fill="#F5CBCB"/>
</g>
</g>
<defs>
<clipPath id="clip0_5_1391">
<rect width="51" height="38" fill="white"/>
</clipPath>
</defs>
</svg>
