<svg width="24" height="24" viewBox="0 0 24 24" fill="none" xmlns="http://www.w3.org/2000/svg">
<path d="M17.9999 11.143V8.57153C17.9999 6.98023 17.3678 5.45411 16.2425 4.32889C15.1173 3.20367 13.5912 2.57153 11.9999 2.57153C10.4086 2.57153 8.88247 3.20367 7.75725 4.32889C6.63204 5.45411 5.9999 6.98023 5.9999 8.57153V11.143C5.9999 13.9715 3.42847 14.6572 3.42847 16.2858C3.42847 17.743 6.77132 18.8572 11.9999 18.8572C17.2285 18.8572 20.5713 17.743 20.5713 16.2858C20.5713 14.6572 17.9999 13.9715 17.9999 11.143Z" stroke="#9095A0" stroke-width="2.05714" stroke-miterlimit="10" stroke-linecap="square"/>
<path d="M12.0001 20.5713C11.1335 20.5713 10.3193 20.5422 9.55298 20.4856C9.71634 21.0067 10.0418 21.4621 10.482 21.7854C10.9221 22.1087 11.454 22.283 12.0001 22.283C12.5463 22.283 13.0781 22.1087 13.5183 21.7854C13.9584 21.4621 14.2839 21.0067 14.4473 20.4856C13.681 20.5422 12.8667 20.5713 12.0001 20.5713Z" fill="#9095A0"/>
</svg>
